<svg xmlns="http://www.w3.org/2000/svg" xmlns:xlink="http://www.w3.org/1999/xlink" viewBox="0 0 591.93 516.35"><defs><style>.cls-1{fill:url(#linear-gradient);}.cls-2{fill:url(#linear-gradient-2);}.cls-3{fill:url(#linear-gradient-3);}.cls-4{fill:url(#linear-gradient-4);}.cls-5{fill:url(#linear-gradient-5);}.cls-6{fill:url(#linear-gradient-6);}.cls-7{fill:url(#linear-gradient-7);}</style><linearGradient id="linear-gradient" x1="530.37" y1="492.1" x2="150.1" y2="501.02" gradientUnits="userSpaceOnUse"><stop offset="0" stop-color="#cbef43"/><stop offset="1" stop-color="#55d3d2"/></linearGradient><linearGradient id="linear-gradient-2" x1="78.19" y1="442.87" x2="267.64" y2="442.87" xlink:href="#linear-gradient"/><linearGradient id="linear-gradient-3" x1="295.8" y1="331.63" x2="591.86" y2="331.63" xlink:href="#linear-gradient"/><linearGradient id="linear-gradient-4" x1="147.33" y1="258.29" x2="296.11" y2="258.29" xlink:href="#linear-gradient"/><linearGradient id="linear-gradient-5" x1="0.55" y1="348.51" x2="166.56" y2="348.51" xlink:href="#linear-gradient"/><linearGradient id="linear-gradient-6" x1="138.77" y1="84.27" x2="161.07" y2="320.69" xlink:href="#linear-gradient"/><linearGradient id="linear-gradient-7" x1="548.91" y1="304.91" x2="325.87" y2="100.83" xlink:href="#linear-gradient"/></defs><g id="Layer_2" data-name="Layer 2"><g id="Layer_1-2" data-name="Layer 1"><polygon class="cls-1" points="591.93 516.35 78.34 516.35 178.27 474.66 505.07 474.66 505.03 474.62 591.86 516.26 591.93 516.35"/><polygon class="cls-2" points="178.08 474.66 178.27 474.66 78.34 516.35 78.19 516.35 214.59 369.44 267.64 369.39 178.08 474.66"/><polygon class="cls-3" points="591.86 516.26 505.03 474.62 420.73 369.39 387.31 327.69 296.11 213.86 295.8 147.19 295.96 147 440.74 327.69 474.15 369.39 591.86 516.26"/><polygon class="cls-4" points="296.11 213.86 295.96 213.66 166.74 369.39 166.56 369.39 147.33 327.69 147.56 327.69 295.8 147.19 296.11 213.86"/><polygon class="cls-5" points="166.56 369.39 0.55 369.39 86.9 327.64 86.86 327.69 147.33 327.69 166.56 369.39"/><polygon class="cls-6" points="296.56 0.74 295.98 66.72 295.96 66.7 86.9 327.64 0.55 369.39 0 369.39 295.96 0 296.56 0.74"/><polygon class="cls-7" points="591.93 369.39 539.31 369.39 474.07 288.99 295.98 66.72 296.56 0.74 591.93 369.39"/></g></g></svg>